<?xml version="1.0" standalone="no"?>
<!DOCTYPE svg PUBLIC "-//W3C//DTD SVG 20010904//EN"
 "http://www.w3.org/TR/2001/REC-SVG-20010904/DTD/svg10.dtd">
<svg version="1.0" xmlns="http://www.w3.org/2000/svg"
 width="1280.000000pt" height="1068.000000pt" viewBox="0 0 1280.000000 1068.000000"
 preserveAspectRatio="xMidYMid meet">
<g transform="translate(0.000000,1068.000000) scale(0.100000,-0.100000)"
fill="#000000" stroke="none">
<path d="M2291 10403 c-146 -76 -159 -91 -185 -204 -35 -154 -30 -357 20 -749
14 -107 31 -245 39 -306 39 -315 40 -535 2 -627 -13 -30 -238 -344 -346 -482
-61 -77 -137 -189 -238 -345 -389 -608 -668 -1176 -792 -1618 -62 -219 -76
-314 -76 -502 0 -156 1 -168 25 -215 18 -36 41 -61 82 -89 76 -52 130 -58 215
-22 35 14 65 26 68 26 13 0 2 -26 -33 -80 -32 -51 -42 -60 -77 -66 -40 -7 -40
-7 -12 -16 15 -5 27 -16 27 -23 0 -7 -25 -64 -55 -126 -36 -74 -55 -127 -55
-151 0 -78 135 -397 199 -470 39 -44 110 -88 145 -88 32 0 76 17 90 34 6 8 25
17 41 21 17 3 37 13 45 20 26 23 123 55 169 55 l43 0 -23 18 c-42 34 6 78 71
66 34 -7 41 -24 10 -24 -11 0 -20 -4 -20 -10 0 -15 33 -12 58 6 18 12 26 13
37 4 8 -7 15 -18 15 -25 0 -8 -32 -76 -70 -153 -82 -161 -90 -194 -65 -258 18
-47 75 -94 115 -94 15 0 28 -17 52 -72 28 -63 39 -75 91 -109 33 -21 75 -42
94 -45 20 -4 91 1 158 10 158 21 854 24 898 4 15 -7 27 -16 27 -19 0 -4 -84
-41 -187 -84 -244 -100 -301 -126 -392 -181 -420 -255 -604 -802 -515 -1529
60 -489 263 -903 589 -1202 47 -43 111 -95 143 -116 74 -49 222 -106 403 -156
185 -52 744 -171 799 -171 109 0 210 43 470 199 207 126 239 138 615 246 118
34 255 102 329 162 130 106 197 293 242 668 21 176 30 771 15 970 -18 239 -35
328 -83 420 -68 133 -167 301 -255 434 -46 68 -82 130 -79 137 3 7 30 18 60
24 44 9 56 16 56 30 0 26 -45 76 -94 105 -109 64 -389 132 -761 184 -443 63
-453 64 -1210 67 -623 3 -877 12 -906 30 -6 3 -7 14 -4 25 8 24 -3 24 -27 2
-16 -15 -26 -15 -73 -6 -30 7 -85 27 -122 46 -94 47 -127 98 -132 209 -5 123
29 224 108 318 21 25 42 56 46 70 10 34 69 150 116 232 44 76 45 78 22 78 -9
0 -24 7 -33 15 -16 14 -27 14 -113 -5 -76 -17 -117 -33 -194 -77 -152 -86
-381 -197 -473 -227 -115 -38 -169 -43 -226 -21 -58 22 -83 71 -84 162 0 152
55 280 170 394 71 69 79 82 99 149 13 41 38 104 56 140 59 118 76 178 73 255
-3 59 -6 70 -20 67 -9 -1 -23 6 -30 17 -14 20 -16 19 -59 -25 -82 -85 -465
-354 -503 -354 -52 0 -68 208 -27 359 33 124 224 615 331 851 328 724 775
1367 1375 1979 499 510 930 845 1391 1083 441 227 782 315 1359 349 310 18
507 6 1585 -96 554 -53 431 -16 940 -282 595 -312 987 -533 1176 -665 71 -49
133 -109 290 -277 109 -118 300 -319 424 -446 327 -336 517 -558 705 -825 244
-348 416 -719 475 -1025 28 -148 44 -355 34 -430 -14 -96 -41 -91 -214 46 -58
45 -120 88 -139 96 -34 15 -76 11 -118 -11 -22 -11 -21 -12 34 -81 39 -48 85
-128 149 -260 51 -104 94 -199 96 -210 2 -15 -4 -21 -27 -26 l-30 -6 30 -7
c52 -13 58 -20 107 -143 55 -139 96 -290 100 -365 3 -48 1 -53 -20 -56 -12 -2
-98 29 -190 69 -300 130 -376 160 -436 174 -66 16 -96 7 -96 -26 0 -35 57
-130 142 -239 70 -89 79 -104 66 -114 -14 -10 -9 -15 33 -35 91 -41 205 -175
234 -275 24 -79 20 -139 -11 -175 -14 -18 -34 -36 -44 -41 -45 -24 -597 -82
-910 -95 -168 -8 -252 -24 -1055 -210 l-320 -73 -478 -31 -478 -30 -192 -95
c-106 -52 -232 -120 -282 -151 -88 -56 -95 -59 -375 -131 -336 -88 -317 -81
-302 -96 8 -8 58 -2 184 21 194 35 236 38 244 17 8 -20 -24 -88 -112 -242 -41
-72 -83 -153 -94 -181 -23 -61 -75 -367 -95 -564 -35 -343 -29 -768 15 -1025
25 -145 79 -308 130 -396 52 -87 141 -166 251 -223 119 -62 187 -86 418 -151
209 -59 229 -68 391 -179 264 -180 374 -215 598 -189 637 72 1121 298 1339
624 156 233 317 676 382 1053 123 707 -46 1164 -558 1508 -110 75 -310 179
-439 230 -42 17 -81 35 -86 40 -11 10 23 42 67 65 53 28 1124 249 1742 360
176 31 326 62 334 68 11 8 12 31 8 106 -6 96 -41 301 -57 330 -5 9 -41 34 -81
55 -47 26 -101 68 -150 117 -149 148 -123 155 119 34 251 -127 335 -142 386
-73 19 26 21 42 20 165 0 140 -18 244 -65 381 -21 61 -15 78 29 83 15 2 27 8
27 14 0 6 -32 38 -71 72 -68 59 -91 88 -79 100 3 3 25 -14 49 -37 67 -66 101
-44 133 86 13 52 17 114 17 268 0 187 -1 207 -27 304 -55 205 -199 569 -402
1012 -84 186 -108 217 -415 534 -176 181 -234 266 -265 385 -20 79 -12 215 40
660 94 799 101 1060 35 1190 -19 37 -79 92 -130 118 -79 42 -370 63 -590 43
-277 -26 -452 -60 -1032 -202 -223 -54 -415 -99 -425 -99 -48 0 -444 136 -577
198 -174 82 -758 169 -1363 203 -408 22 -1001 1 -1106 -40 -16 -6 -43 -11 -60
-11 -18 0 -97 -14 -177 -31 -203 -43 -311 -47 -485 -20 -163 26 -427 81 -750
156 -415 96 -712 148 -920 160 -55 3 -117 8 -137 10 -31 4 -58 -6 -167 -62z
m7565 -418 c96 -17 219 -70 219 -94 0 -21 -115 -49 -250 -62 -376 -36 -661
-162 -916 -406 -53 -51 -99 -93 -103 -93 -13 0 -606 344 -606 351 0 4 16 20
36 35 32 25 89 37 732 155 383 69 720 127 748 128 28 0 91 -6 140 -14z m142
-307 c79 -24 111 -122 93 -287 -23 -204 -152 -1019 -166 -1041 -12 -19 -32
-10 -106 51 -111 92 -175 156 -354 354 -179 199 -344 362 -418 415 -38 27 -46
38 -41 54 26 87 230 234 559 402 l140 71 130 -4 c72 -3 145 -9 163 -15z
m-2203 -6068 c704 -45 1195 -209 1503 -504 190 -181 306 -393 333 -609 22
-167 -14 -494 -86 -785 -129 -519 -318 -813 -530 -824 l-50 -3 -12 90 c-18
134 -41 436 -49 643 -4 100 -10 182 -15 182 -18 0 -74 -212 -139 -530 -39
-190 -80 -374 -92 -410 -54 -168 -136 -278 -246 -332 -61 -30 -74 -33 -162
-33 -271 1 -435 123 -502 373 -18 68 -21 121 -28 437 -6 299 -10 369 -25 415
-23 73 -43 110 -58 110 -28 0 -166 -685 -179 -885 -3 -38 -4 -40 -40 -43 -43
-4 -146 20 -198 46 -38 19 -41 27 -59 168 -6 43 -17 124 -25 179 -9 55 -34
233 -56 395 -22 162 -44 322 -49 355 -21 134 -31 206 -46 320 -9 66 -20 147
-25 180 -14 89 -26 172 -65 457 -34 241 -35 258 -20 288 29 56 147 141 327
237 l173 91 130 1 c72 1 202 -4 290 -9z"/>
<path d="M3973 8571 c-498 -272 -843 -732 -1024 -1363 -37 -132 -42 -163 -61
-396 -24 -294 -26 -284 67 -378 136 -139 350 -240 696 -328 289 -74 535 -102
809 -93 512 18 936 157 1286 420 94 70 117 101 147 189 18 55 21 86 21 253 0
275 -36 447 -140 665 -236 492 -742 888 -1301 1019 -121 28 -282 51 -363 51
-57 0 -74 -5 -137 -39z m252 -275 c43 -20 55 -30 55 -47 0 -13 -40 -91 -89
-174 -99 -165 -123 -230 -141 -379 -16 -124 -8 -382 15 -491 38 -184 124 -314
243 -371 81 -39 220 -46 285 -15 99 48 189 189 235 366 28 108 54 282 50 336
l-3 44 -75 7 c-169 15 -275 58 -312 128 -24 45 -23 120 1 168 26 50 93 112
171 160 67 41 75 55 57 108 -12 34 17 56 61 48 209 -37 312 -247 329 -669 18
-452 -107 -853 -331 -1062 -194 -182 -463 -190 -642 -21 -96 90 -167 215 -223
392 -60 188 -75 301 -75 581 1 211 4 268 22 365 22 119 60 245 94 315 50 98
168 234 205 235 7 0 37 -11 68 -24z m-578 -338 c-25 -298 -29 -383 -24 -568
11 -389 76 -656 213 -877 66 -107 189 -228 292 -288 46 -27 81 -53 79 -59 -2
-6 -37 -16 -78 -23 -66 -12 -85 -11 -176 8 -275 55 -557 177 -827 358 -56 38
-108 76 -115 85 -12 14 -12 33 -2 113 45 367 311 968 555 1256 77 90 91 89 83
-5z m1729 -173 c141 -116 331 -492 389 -769 60 -292 -40 -501 -300 -626 -68
-33 -690 -250 -716 -250 -23 0 -1 31 84 119 206 213 342 410 407 590 52 143
62 230 67 619 4 233 9 352 16 352 5 0 29 -16 53 -35z m-899 -1661 c3 -8 -2
-23 -11 -32 -14 -14 -22 -15 -63 -4 -95 26 -90 52 10 52 43 0 59 -4 64 -16z"/>
<path d="M7990 8547 c-389 -180 -671 -367 -905 -602 -145 -145 -237 -268 -319
-426 -162 -310 -214 -684 -127 -912 15 -39 322 -265 436 -321 361 -175 734
-259 1160 -260 296 0 509 33 775 120 390 128 611 300 648 505 40 213 -101 683
-351 1173 -231 454 -446 659 -782 745 -111 29 -204 41 -310 40 -89 0 -92 -1
-225 -62z m418 -258 c197 -98 292 -360 292 -808 0 -426 -116 -807 -302 -993
-131 -131 -323 -175 -496 -114 -291 103 -508 595 -489 1111 13 355 106 574
295 693 86 54 152 66 152 27 0 -8 -15 -21 -33 -29 -99 -41 -141 -184 -154
-521 -17 -459 82 -745 280 -811 80 -27 189 -24 257 8 154 71 280 290 280 488
0 135 1 134 -166 224 -128 71 -149 85 -171 124 -70 118 0 302 136 361 27 11
52 25 55 30 3 5 -10 58 -29 117 -19 60 -35 112 -35 117 0 17 72 4 128 -24z
m535 -296 c214 -220 340 -510 516 -1184 23 -86 41 -164 41 -175 0 -32 -351
-267 -485 -324 -232 -100 -463 -158 -713 -181 -95 -9 -135 -10 -143 -2 -8 8
35 42 153 121 367 247 480 380 548 645 39 155 51 397 30 627 -15 164 -31 510
-25 520 11 17 21 11 78 -47z m-1751 -364 c19 -516 122 -900 308 -1148 99 -131
216 -219 367 -274 47 -18 86 -36 86 -42 3 -18 -66 -34 -146 -34 -275 -2 -725
194 -959 417 -43 41 -91 95 -108 120 -35 54 -36 49 11 284 51 261 142 503 252
670 61 95 154 201 171 195 7 -2 13 -67 18 -188z"/>
<path d="M6703 5870 c-191 -91 -442 -104 -707 -39 l-78 19 -139 -76 c-76 -42
-139 -80 -139 -85 0 -11 176 -154 447 -365 l211 -164 12 -51 c26 -109 -8 -243
-93 -362 -117 -163 -291 -282 -433 -294 -180 -15 -386 68 -605 245 -43 34 -80
62 -83 62 -11 0 -86 -52 -86 -59 0 -13 175 -147 247 -189 225 -132 413 -169
609 -123 44 11 155 52 247 90 92 39 173 71 181 71 8 0 86 -35 174 -78 88 -43
193 -90 233 -103 142 -46 267 -24 504 91 265 128 398 245 381 334 -18 98 -107
57 -256 -117 -79 -94 -125 -121 -256 -154 -88 -21 -305 -24 -384 -4 -177 44
-269 141 -293 306 -22 151 30 297 153 428 41 44 171 153 314 263 190 146 243
191 234 201 -24 29 -149 115 -209 143 -92 43 -114 44 -186 10z m125 -114 c33
-31 37 -40 36 -81 -1 -65 -57 -142 -164 -228 -116 -93 -213 -140 -288 -140
-71 0 -170 40 -323 132 -161 96 -293 211 -275 239 3 5 101 12 218 16 340 11
559 35 672 75 73 26 82 25 124 -13z"/>
<path d="M8030 5590 c-10 -6 315 -9 925 -9 517 1 920 5 895 10 -66 11 -1802
11 -1820 -1z"/>
<path d="M7505 5547 c26 -16 399 -15 435 1 19 8 -31 11 -215 11 -193 0 -236
-2 -220 -12z"/>
<path d="M10210 5540 c56 -8 257 -13 249 -6 -2 2 -71 6 -154 8 -90 4 -128 3
-95 -2z"/>
<path d="M2815 5460 c-4 -7 310 -10 937 -9 526 1 925 5 903 10 -59 12 -1832
11 -1840 -1z"/>
<path d="M2296 5413 c-6 -15 8 -16 166 -10 95 4 201 7 236 7 34 0 62 4 62 10
0 6 -83 10 -229 10 -204 0 -230 -2 -235 -17z"/>
<path d="M4940 5419 c19 -5 124 -12 233 -15 179 -7 197 -6 197 9 0 15 -22 17
-232 16 -157 -1 -222 -4 -198 -10z"/>
<path d="M2040 5370 c0 -9 159 -3 169 6 2 2 -35 4 -82 4 -50 0 -87 -4 -87 -10z"/>
<path d="M1853 5333 c20 -2 54 -2 75 0 20 2 3 4 -38 4 -41 0 -58 -2 -37 -4z"/>
<path d="M1605 5290 c-8 -12 -6 -13 80 -10 101 3 107 20 8 20 -45 0 -85 -4
-88 -10z"/>
<path d="M5306 5195 c-4 -13 8 -15 74 -15 64 0 80 3 80 15 0 12 -15 15 -74 15
-56 0 -75 -4 -80 -15z"/>
<path d="M4948 5153 c39 -2 105 -2 145 0 39 1 7 3 -73 3 -80 0 -112 -2 -72 -3z"/>
<path d="M4548 5113 c28 -2 76 -2 105 0 28 2 5 3 -53 3 -58 0 -81 -1 -52 -3z"/>
<path d="M840 5080 c-8 -5 -11 -12 -8 -15 10 -10 69 5 62 16 -7 12 -35 11 -54
-1z"/>
<path d="M4190 5075 c-11 -13 -1 -15 81 -15 105 0 169 8 169 21 0 5 -53 9
-119 9 -93 0 -121 -3 -131 -15z"/>
<path d="M705 5030 c-4 -6 5 -10 20 -10 15 0 24 4 20 10 -3 6 -12 10 -20 10
-8 0 -17 -4 -20 -10z"/>
<path d="M3940 5030 c-11 -7 4 -10 50 -10 46 0 61 3 50 10 -8 5 -31 10 -50 10
-19 0 -42 -5 -50 -10z"/>
<path d="M3679 4984 c-12 -15 -6 -15 66 -9 125 12 143 23 39 24 -73 1 -94 -2
-105 -15z"/>
<path d="M3415 4940 c-7 -12 63 -12 120 -1 35 8 31 9 -37 10 -42 0 -80 -3 -83
-9z"/>
<path d="M5235 4940 c-7 -12 32 -12 60 0 16 7 13 9 -17 9 -20 1 -40 -3 -43 -9z"/>
<path d="M405 4900 c-7 -12 22 -12 50 0 17 7 15 9 -12 9 -17 1 -35 -3 -38 -9z"/>
<path d="M3250 4900 c0 -6 16 -8 43 -4 58 9 59 14 4 14 -26 0 -47 -5 -47 -10z"/>
<path d="M5060 4900 c0 -6 16 -8 43 -4 58 9 59 14 4 14 -26 0 -47 -5 -47 -10z"/>
<path d="M315 4860 c-3 -5 -2 -10 4 -10 5 0 13 5 16 10 3 6 2 10 -4 10 -5 0
-13 -4 -16 -10z"/>
<path d="M3065 4859 c-4 -6 -5 -13 -2 -16 9 -8 127 8 127 18 0 13 -117 11
-125 -2z"/>
<path d="M4875 4859 c-4 -6 -5 -13 -2 -16 9 -8 127 8 127 18 0 13 -117 11
-125 -2z"/>
<path d="M238 4813 c7 -3 16 -2 19 1 4 3 -2 6 -13 5 -11 0 -14 -3 -6 -6z"/>
<path d="M2910 4811 c0 -8 79 -3 89 5 2 2 -17 4 -42 4 -26 0 -47 -4 -47 -9z"/>
<path d="M4750 4810 c0 -12 17 -12 45 0 17 7 15 9 -12 9 -18 1 -33 -3 -33 -9z"/>
<path d="M2780 4772 c0 -5 14 -7 30 -4 17 2 30 6 30 8 0 2 -13 4 -30 4 -16 0
-30 -4 -30 -8z"/>
<path d="M4613 4773 c15 -2 37 -2 50 0 12 2 0 4 -28 4 -27 0 -38 -2 -22 -4z"/>
<path d="M2600 4726 c0 -10 13 -12 53 -8 76 7 83 22 9 22 -45 0 -62 -4 -62
-14z"/>
<path d="M4410 4728 c0 -9 15 -12 52 -10 77 5 85 22 10 22 -43 0 -62 -4 -62
-12z"/>
<path d="M2483 4683 c9 -2 25 -2 35 0 9 3 1 5 -18 5 -19 0 -27 -2 -17 -5z"/>
<path d="M4293 4683 c9 -2 25 -2 35 0 9 3 1 5 -18 5 -19 0 -27 -2 -17 -5z"/>
<path d="M2340 4640 c0 -12 27 -12 55 0 16 7 13 9 -17 9 -21 1 -38 -3 -38 -9z"/>
<path d="M4150 4640 c0 -6 11 -8 28 -4 39 10 40 14 4 14 -18 0 -32 -5 -32 -10z"/>
<path d="M4043 4593 c9 -2 25 -2 35 0 9 3 1 5 -18 5 -19 0 -27 -2 -17 -5z"/>
<path d="M3868 4553 c12 -2 30 -2 40 0 9 3 -1 5 -23 4 -22 0 -30 -2 -17 -4z"/>
<path d="M3720 4515 c-10 -12 -9 -15 6 -15 30 0 64 12 64 21 0 15 -57 10 -70
-6z"/>
<path d="M3600 4470 c-12 -8 -9 -10 13 -10 16 0 26 4 22 10 -8 12 -16 12 -35
0z"/>
<path d="M3465 4430 c-8 -13 25 -13 45 0 12 8 9 10 -12 10 -15 0 -30 -4 -33
-10z"/>
<path d="M3340 4390 c0 -5 13 -10 29 -10 17 0 33 5 36 10 4 6 -8 10 -29 10
-20 0 -36 -4 -36 -10z"/>
<path d="M3120 4300 c0 -13 30 -13 50 0 11 7 7 10 -17 10 -18 0 -33 -4 -33
-10z"/>
<path d="M3000 4251 c0 -5 9 -7 20 -4 11 3 20 7 20 9 0 2 -9 4 -20 4 -11 0
-20 -4 -20 -9z"/>
<path d="M1100 4169 c0 -5 5 -7 10 -4 6 3 10 8 10 11 0 2 -4 4 -10 4 -5 0 -10
-5 -10 -11z"/>
<path d="M2780 4170 c0 -5 15 -10 34 -10 19 0 38 5 41 10 4 6 -10 10 -34 10
-23 0 -41 -4 -41 -10z"/>
<path d="M2560 4080 c0 -6 11 -8 28 -4 39 10 40 14 4 14 -18 0 -32 -5 -32 -10z"/>
<path d="M798 3993 c7 -3 16 -2 19 1 4 3 -2 6 -13 5 -11 0 -14 -3 -6 -6z"/>
<path d="M2388 3993 c7 -3 16 -2 19 1 4 3 -2 6 -13 5 -11 0 -14 -3 -6 -6z"/>
<path d="M575 3830 c-3 -5 3 -10 14 -10 12 0 21 5 21 10 0 6 -6 10 -14 10 -8
0 -18 -4 -21 -10z"/>
<path d="M1655 3610 c-3 -5 -2 -10 4 -10 5 0 13 5 16 10 3 6 2 10 -4 10 -5 0
-13 -4 -16 -10z"/>
</g>
</svg>
